<?xml version="1.0" standalone="no"?>
<!DOCTYPE svg PUBLIC "-//W3C//DTD SVG 20010904//EN"
 "http://www.w3.org/TR/2001/REC-SVG-20010904/DTD/svg10.dtd">
<svg version="1.0" xmlns="http://www.w3.org/2000/svg"
 width="7200.000000pt" height="7200.000000pt" viewBox="0 0 7200.000000 7200.000000"
 preserveAspectRatio="xMidYMid meet">

<g transform="translate(0.000000,7200.000000) scale(0.100000,-0.100000)"
fill="#000000" stroke="none">
<path d="M17720 36890 l0 -24910 3285 0 3285 0 0 11675 0 11675 12143 2 c6678
0 12151 1 12162 2 20 1 20 -6 23 -11677 l2 -11677 3285 0 3285 0 0 24910 0
24910 -3282 -2 -3283 -3 -3 -10422 -2 -10423 -12165 0 -12165 0 -2 10423 -3
10422 -3282 3 -3283 2 0 -24910z"/>
</g>
</svg>
